<?xml version="1.0" encoding="UTF-8" standalone="no"?>
<!DOCTYPE svg PUBLIC "-//W3C//DTD SVG 20010904//EN"
              "http://www.w3.org/TR/2001/REC-SVG-20010904/DTD/svg10.dtd">

<svg id="maudioOff" xmlns="http://www.w3.org/2000/svg"
     width="13.6111in" height="13.6111in"
     viewBox="0 0 980 980">
  <path id="Auswahl"
        fill="black" stroke="none" stroke-width="0" stroke-linecap="round" stroke-linejoin="round"
        d="M 101.00,0.07
           C 101.00,0.07 90.00,1.29 90.00,1.29
             79.20,2.61 66.77,6.50 57.00,11.26
             49.04,15.14 41.58,20.10 35.01,26.05
             17.92,41.52 7.00,60.38 2.45,83.00
             -0.81,99.19 0.00,125.83 0.00,143.00
             0.00,143.00 0.00,214.00 0.00,214.00
             0.00,214.00 0.00,870.00 0.00,870.00
             0.00,870.00 0.91,882.00 0.91,882.00
             1.94,896.92 3.99,907.22 10.31,921.00
             28.32,960.31 67.11,979.93 109.00,980.00
             109.00,980.00 871.00,980.00 871.00,980.00
             912.86,979.93 951.70,960.27 969.69,921.00
             975.96,907.33 978.05,896.82 979.09,882.00
             979.09,882.00 980.00,871.00 980.00,871.00
             980.00,871.00 980.00,573.00 980.00,573.00
             980.00,573.00 980.00,110.00 980.00,110.00
             980.00,110.00 979.17,99.00 979.17,99.00
             977.63,82.96 976.60,74.08 969.69,59.00
             956.15,29.44 928.68,8.82 897.00,2.45
             897.00,2.45 882.00,0.83 882.00,0.83
             882.00,0.83 873.00,0.07 873.00,0.07
             873.00,0.07 704.00,0.07 704.00,0.07
             704.00,0.07 367.00,0.07 367.00,0.07
             367.00,0.07 191.00,0.07 191.00,0.07
             191.00,0.07 133.00,0.07 133.00,0.07
             133.00,0.07 101.00,0.07 101.00,0.07 Z
           M 97.00,70.06
           C 97.00,70.06 128.00,70.06 128.00,70.06
             128.00,70.06 185.00,70.06 185.00,70.06
             185.00,70.06 358.00,70.06 358.00,70.06
             358.00,70.06 876.00,70.06 876.00,70.06
             891.70,70.02 904.12,77.36 908.79,93.00
             910.06,97.26 909.99,99.67 910.00,104.00
             910.00,104.00 910.00,257.00 910.00,257.00
             910.00,257.00 910.00,876.00 910.00,876.00
             909.97,896.56 896.56,909.97 876.00,910.00
             876.00,910.00 723.00,910.00 723.00,910.00
             723.00,910.00 104.00,910.00 104.00,910.00
             83.07,909.97 70.03,896.93 70.00,876.00
             70.00,876.00 70.00,796.00 70.00,796.00
             70.00,796.00 70.00,416.00 70.00,416.00
             70.00,416.00 70.00,154.00 70.00,154.00
             70.00,154.00 70.00,118.00 70.00,118.00
             70.00,100.07 68.03,83.51 87.00,73.63
             90.44,71.84 93.23,71.03 97.00,70.06 Z
           M 561.00,175.00
           C 561.00,175.00 604.00,219.00 604.00,219.00
             604.00,219.00 648.00,262.00 648.00,262.00
             648.00,262.00 560.00,350.00 560.00,350.00
             560.00,350.00 536.00,374.00 536.00,374.00
             533.99,376.01 527.95,381.53 527.34,384.00
             526.31,388.09 537.99,397.99 541.00,401.00
             541.00,401.00 581.00,441.00 581.00,441.00
             583.81,443.81 591.99,453.67 596.00,452.66
             598.47,452.05 603.99,446.01 606.00,444.00
             606.00,444.00 629.00,421.00 629.00,421.00
             629.00,421.00 687.00,363.00 687.00,363.00
             693.87,356.13 712.28,338.59 717.00,332.00
             717.00,332.00 774.00,389.00 774.00,389.00
             774.00,389.00 805.00,419.00 805.00,419.00
             805.00,419.00 805.00,175.00 805.00,175.00
             805.00,175.00 561.00,175.00 561.00,175.00 Z
           M 263.00,648.00
           C 263.00,648.00 206.00,591.00 206.00,591.00
             206.00,591.00 175.00,561.00 175.00,561.00
             175.00,561.00 175.00,805.00 175.00,805.00
             175.00,805.00 419.00,805.00 419.00,805.00
             419.00,805.00 376.00,761.00 376.00,761.00
             376.00,761.00 332.00,718.00 332.00,718.00
             332.00,718.00 420.00,630.00 420.00,630.00
             420.00,630.00 444.00,606.00 444.00,606.00
             446.01,603.99 452.05,598.47 452.66,596.00
             453.69,591.91 442.01,582.01 439.00,579.00
             439.00,579.00 399.00,539.00 399.00,539.00
             396.19,536.19 388.01,526.33 384.00,527.34
             381.53,527.95 376.01,533.99 374.00,536.00
             374.00,536.00 351.00,559.00 351.00,559.00
             351.00,559.00 293.00,617.00 293.00,617.00
             286.13,623.87 267.72,641.41 263.00,648.00 Z" />
</svg>
