<?xml version="1.0" encoding="UTF-8" standalone="no"?>
<!DOCTYPE svg PUBLIC "-//W3C//DTD SVG 20010904//EN"
              "http://www.w3.org/TR/2001/REC-SVG-20010904/DTD/svg10.dtd">

<svg id="sms" xmlns="http://www.w3.org/2000/svg"
     width="0.266667in" height="0.266667in"
     viewBox="0 0 24 24">
  <path id="Auswahl"
        fill="white" stroke="none" stroke-width="0" stroke-linecap="round" stroke-linejoin="round"
        d="M 1.72,13.99
           C 1.72,13.99 1.72,14.89 1.72,14.89
             1.72,15.23 1.73,15.25 2.31,15.43
             2.84,15.60 3.39,15.75 3.95,15.75
             3.95,15.75 4.73,15.75 4.73,15.75
             5.76,15.75 6.84,15.20 7.20,14.19
             7.28,13.96 7.31,13.72 7.31,13.49
             7.31,13.32 7.26,13.06 7.21,12.90
             6.87,11.74 5.39,11.59 4.38,11.42
             3.64,11.29 2.79,11.13 2.81,10.20
             2.82,9.80 3.10,9.50 3.44,9.32
             3.95,9.04 4.77,9.05 5.32,9.18
             5.68,9.26 6.00,9.37 6.33,9.54
             6.56,9.66 6.77,9.84 7.00,9.89
             7.00,9.89 7.00,9.03 7.00,9.03
             7.00,8.93 7.01,8.79 6.94,8.72
             6.86,8.65 6.52,8.54 6.41,8.51
             6.01,8.39 5.38,8.25 4.96,8.25
             4.96,8.25 4.22,8.25 4.22,8.25
             3.27,8.25 2.20,8.75 1.86,9.69
             1.79,9.91 1.75,10.21 1.76,10.44
             1.78,10.63 1.82,10.92 1.89,11.10
             2.34,12.25 3.73,12.34 4.77,12.52
             5.50,12.66 6.28,12.82 6.25,13.72
             6.24,14.19 5.95,14.49 5.55,14.69
             5.01,14.95 4.17,14.95 3.60,14.81
             3.26,14.73 2.80,14.57 2.50,14.41
             2.26,14.28 1.97,14.03 1.72,13.99 Z
           M 16.81,13.99
           C 16.81,13.99 16.81,14.89 16.81,14.89
             16.81,15.23 16.82,15.25 17.39,15.43
             17.93,15.60 18.47,15.75 19.04,15.75
             19.04,15.75 19.82,15.75 19.82,15.75
             20.85,15.75 21.93,15.20 22.29,14.19
             22.36,13.96 22.40,13.72 22.40,13.49
             22.39,13.32 22.35,13.06 22.30,12.90
             21.96,11.74 20.48,11.59 19.47,11.42
             18.73,11.29 17.88,11.13 17.90,10.20
             17.91,9.80 18.18,9.50 18.53,9.32
             19.03,9.04 19.85,9.05 20.40,9.18
             20.76,9.26 21.09,9.37 21.42,9.54
             21.64,9.66 21.85,9.84 22.08,9.89
             22.08,9.89 22.08,9.03 22.08,9.03
             22.08,8.93 22.10,8.79 22.02,8.72
             21.95,8.65 21.61,8.54 21.50,8.51
             21.10,8.39 20.46,8.25 20.05,8.25
             20.05,8.25 19.31,8.25 19.31,8.25
             18.36,8.25 17.28,8.75 16.95,9.69
             16.88,9.91 16.83,10.21 16.85,10.44
             16.86,10.63 16.91,10.92 16.98,11.10
             17.43,12.25 18.82,12.34 19.86,12.52
             20.58,12.66 21.36,12.82 21.34,13.72
             21.33,14.19 21.04,14.49 20.64,14.69
             20.10,14.95 19.26,14.95 18.68,14.81
             18.35,14.73 17.89,14.57 17.59,14.41
             17.35,14.28 17.06,14.03 16.81,13.99 Z
           M 8.79,8.40
           C 8.79,8.40 8.79,15.60 8.79,15.60
             8.79,15.60 9.73,15.60 9.73,15.60
             9.73,15.60 9.73,9.54 9.73,9.54
             9.73,9.54 10.08,10.24 10.08,10.24
             10.08,10.24 10.80,11.77 10.80,11.77
             10.80,11.77 11.35,12.94 11.35,12.94
             11.35,12.94 11.65,13.60 11.65,13.60
             11.65,13.60 12.00,13.60 12.00,13.60
             12.00,13.60 12.29,13.56 12.29,13.56
             12.29,13.56 12.46,13.29 12.46,13.29
             12.46,13.29 12.75,12.66 12.75,12.66
             12.75,12.66 13.73,10.59 13.73,10.59
             13.73,10.59 14.23,9.50 14.23,9.50
             14.23,9.50 14.27,10.24 14.27,10.24
             14.27,10.24 14.27,11.49 14.27,11.49
             14.27,11.49 14.27,15.60 14.27,15.60
             14.27,15.60 15.24,15.60 15.24,15.60
             15.24,15.60 15.24,8.40 15.24,8.40
             15.24,8.40 14.19,8.40 14.19,8.40
             14.10,8.40 13.97,8.40 13.89,8.44
             13.80,8.50 13.74,8.66 13.70,8.76
             13.70,8.76 13.41,9.38 13.41,9.38
             13.41,9.38 12.48,11.37 12.48,11.37
             12.37,11.61 12.16,12.15 12.00,12.31
             12.00,12.31 11.58,11.37 11.58,11.37
             11.58,11.37 10.57,9.26 10.57,9.26
             10.57,9.26 10.14,8.44 10.14,8.44
             10.14,8.44 9.85,8.40 9.85,8.40
             9.85,8.40 8.79,8.40 8.79,8.40 Z" />
</svg>
