<svg id="toolbar-buzz-off" viewBox="0 0 24 24" fill="none" stroke="currentColour" strokeWidth="2" stroke-linecap="round" stroke-linejoin="round" xmlns="http://www.w3.org/2000/svg"><g><g id="Group-7" transform="translate(1.000000, 2.000000)"><g id="Group-6"><g id="user-(2)" transform="translate(0.570545, -0.000000)" stroke="#808080" stroke-linecap="round" stroke-linejoin="round" stroke-width="1.5"><path d="M17.5238095,18.9 L17.5238095,16.8 C17.5238095,14.4804041 15.5623903,12.6 13.1428571,12.6 L4.38095238,12.6 C1.96141919,12.6 0,14.4804041 0,16.8 L0,18.9" id="Path"></path><ellipse id="Oval" cx="8.76190476" cy="4.2" rx="4.38095238" ry="4.2"></ellipse></g><path d="M16.5914717,14.138116 L18.4219415,5.11012628 C18.6537111,3.967024 19.7597009,3.22127304 20.9063234,3.43494792 L21.0071216,3.45373181 C22.1666819,3.66981768 22.931519,4.78499923 22.7154331,5.94455951 C22.7133719,5.95562072 22.7112232,5.96666547 22.7089874,5.97769271 L20.632138,16.2208417 C20.409332,17.3197344 19.3786193,18.0514166 18.2805626,17.916539 L18.517401,18.4463363 C18.7580903,18.9847478 18.5167388,19.6163338 17.9783273,19.8570231 C17.8412133,19.918318 17.6927116,19.95 17.5425208,19.95 L1.07397479,19.95 C0.484213577,19.95 0.0061176496,19.4719041 0.0061176496,18.8821429 C0.0061176496,18.787526 0.0186926085,18.6933288 0.0435122542,18.6020253 L1.67508302,12.6 L15.2115476,12.6 C15.6327156,12.6 16.0145436,12.8475531 16.1864278,13.2320506 L16.5914717,14.138116 Z" id="Combined-Shape" fill="#808080"></path></g></g></g></svg>